<svg xmlns="http://www.w3.org/2000/svg" viewBox="0 0 30.98 32.03"><defs><style>.cls-1{fill:#4491bb;}</style></defs><title>book-calendar</title><g id="Layer_2" data-name="Layer 2"><g id="Layer_1-2" data-name="Layer 1"><rect id="_Path_" data-name="&lt;Path&gt;" class="cls-1" x="3.88" y="18.19" width="7.01" height="1.79"/><polygon id="_Path_2" data-name="&lt;Path&gt;" class="cls-1" points="23.1 18.49 21.32 18.49 21.32 24.11 21.35 24.11 21.33 24.16 26.03 26.73 26.73 25.45 23.1 23.46 23.1 18.49"/><rect id="_Path_3" data-name="&lt;Path&gt;" class="cls-1" x="4.02" y="13.72" width="11.33" height="1.79"/><path id="_Compound_Path_" data-name="&lt;Compound Path&gt;" class="cls-1" d="M26.23,15.72V6.12A2.54,2.54,0,0,0,23.7,3.58h-.55V2.34a2.44,2.44,0,0,0-4.87,0V3.58H8.18V2.48A2.39,2.39,0,0,0,5.74.14,2.39,2.39,0,0,0,3.3,2.48v1.1H2.53A2.54,2.54,0,0,0,0,6.12V24.9a2.54,2.54,0,0,0,2.53,2.53h12.2a8.62,8.62,0,1,0,11.5-11.72ZM19.73,2.34a1,1,0,0,1,2,0V5.85a1,1,0,0,1-2,0Zm-15,.14a1,1,0,0,1,1-.89,1,1,0,0,1,1,.89V6a1,1,0,0,1-1,.89,1,1,0,0,1-1-.89Zm9.37,23.46H2.53a1,1,0,0,1-1-1V6.12a1,1,0,0,1,1-1H3.3V6A2.39,2.39,0,0,0,5.74,8.33,2.39,2.39,0,0,0,8.18,6V5.08H18.28v.77a2.44,2.44,0,0,0,4.87,0V5.08h.55a1,1,0,0,1,1,1v9A8.62,8.62,0,0,0,14.12,25.94Zm8.24,4.64a7.18,7.18,0,1,1,7.18-7.18A7.18,7.18,0,0,1,22.36,30.58Z"/></g></g></svg>